<svg xmlns="http://www.w3.org/2000/svg" viewBox="0 0 98.17 73.59"><g data-name="Layer 2"><g data-name="Layer 1"><circle cx="48.83" cy="28.56" r="28.56" fill="#2d3c49"/><path d="M48.84 5.05a23.51 23.51 0 1 0 3.87 46.7V45.6a16.72 16.72 0 0 1-3.78.43 17.69 17.69 0 0 1-17.67-17.41c0-9.61 8.15-17.31 17.67-17.4s17.47 6.92 17.22 17.4v4.83a2.09 2.09 0 0 1-1.69 2.08h-.09a2 2 0 0 1-2.3-2v-3.79-9.58a2.85 2.85 0 0 0-2.89-2.93 3 3 0 0 0-2.07.81A12.57 12.57 0 0 0 55 16.66a13.38 13.38 0 1 0 2.74 21.92 8.15 8.15 0 0 0 3 2.41 8.32 8.32 0 0 0 .78.3 7.85 7.85 0 0 0 2.53.42 8.25 8.25 0 0 0 5-1.72 8 8 0 0 0 3.22-6.18v-7.63C71.56 14.42 61.06 5.07 48.84 5.05zm7.29 24.46a7.27 7.27 0 0 1-14.46-.38 1.79 1.79 0 0 1 0-.23 7.47 7.47 0 0 1 .05-1.55 7 7 0 0 1 4.55-5.72 7.28 7.28 0 0 1 7.42 1.43 7.27 7.27 0 0 1 2.49 5.48 7.69 7.69 0 0 1-.05.97z" fill="#fff"/><path d="M51.26 27.21h-3.85v2.72H52a3.45 3.45 0 1 1-.65-3.73h3.21a6.19 6.19 0 1 0 .44 2.36 6.07 6.07 0 0 0-.15-1.35z" fill="#02b3e4"/><text transform="translate(.12 70.14)" font-family="Montserrat-Bold,Montserrat" letter-spacing="-.06em" font-size="12.94" fill="#2d3c49"><tspan font-weight="700">A</tspan><tspan x="9.14" y="0" letter-spacing="-.05em" font-weight="700">G</tspan><tspan x="18.47" y="0" font-family="Lato-Light,Lato" letter-spacing="-.02em"></tspan></text><text transform="translate(21.81 70.14)" font-family="Montserrat-Regular,Montserrat" letter-spacing="-.08em" font-size="12.94" fill="#2d3c49">W<tspan x="13.34" y="0" letter-spacing="-.03em">eb Design</tspan></text></g></g></svg>
