<svg xmlns="http://www.w3.org/2000/svg" viewBox="0 0 98.17 68.53"><defs><style>.cls-1,.cls-3,.cls-7{fill:#fff;}.cls-2{fill:#02b3e4;}.cls-3,.cls-7{font-size:12.94px;}.cls-3{font-family:Montserrat-Bold, Montserrat;letter-spacing:-0.06em;}.cls-4,.cls-5{font-weight:700;}.cls-5{letter-spacing:-0.05em;}.cls-6{font-family:Lato-Light, Lato;letter-spacing:-0.02em;}.cls-7{font-family:Montserrat-Regular, Montserrat;letter-spacing:-0.08em;}.cls-8{letter-spacing:-0.03em;}</style></defs><title>Asset 8svg</title><g id="Layer_2" data-name="Layer 2"><g id="Layer_1-2" data-name="Layer 1"><path class="cls-1" d="M48.84,0a23.51,23.51,0,1,0,3.87,46.7V40.55a16.72,16.72,0,0,1-3.78.43A17.7,17.7,0,0,1,31.26,23.57c0-9.62,8.15-17.32,17.67-17.41S66.4,13.09,66.15,23.57c0,0,0,.09,0,.13v4.69a2.1,2.1,0,0,1-1.69,2.09h-.09a2,2,0,0,1-2.3-2V24.69c0-.12,0-.23,0-.34V15.1a2.86,2.86,0,0,0-2.89-2.93,3,3,0,0,0-2.07.81A12.52,12.52,0,0,0,55,11.61a13.37,13.37,0,1,0,2.74,21.92,8.12,8.12,0,0,0,3,2.4c.26.12.52.22.78.31a7.85,7.85,0,0,0,2.53.41,8.25,8.25,0,0,0,5-1.72,8,8,0,0,0,3.22-6.18V21.13h0C71.56,9.37,61.06,0,48.84,0Zm7.29,24.45a7.27,7.27,0,0,1-14.46-.38,1.64,1.64,0,0,1,0-.22,7.59,7.59,0,0,1,.05-1.56,7,7,0,0,1,4.55-5.71A7.28,7.28,0,0,1,53.67,18l0,0a7.3,7.3,0,0,1,2.49,5.49A7.54,7.54,0,0,1,56.13,24.45Z"/><path class="cls-2" d="M51.26,22.15H47.41v2.72H52a3.45,3.45,0,1,1-.65-3.72h3.21A6.19,6.19,0,1,0,55,23.51a5.94,5.94,0,0,0-.15-1.35Z"/><text class="cls-3" transform="translate(0.12 65.09)"><tspan class="cls-4">A</tspan><tspan class="cls-5" x="9.14" y="0">G</tspan><tspan class="cls-6" x="18.47" y="0"> </tspan></text><text class="cls-7" transform="translate(21.81 65.09)">W<tspan class="cls-8" x="13.34" y="0">eb Design</tspan></text></g></g></svg>